# xmcd
#
# Track frame offsets:
#	150
#	18041
#	30182
#	49946
#	64877
#	78749
#	97670
#	108045
#	121367
#	134338
#	149521
#	169702
#	181692
#	198185
#	213999
#
# Disc length: 3100 seconds
#
# Revision: 0
# Processed by: cddbd v1.4PL0 Copyright (c) Steve Scherf et al.
# Submitted via: EasyCDDAExtractor 4.6.0.1
#
DISCID=bd0c1a0f
DTITLE=Coal Creek Bluegrass Band - Love of the Mountains
DYEAR=2003
DGENRE=Country
TTITLE0=Fire on the Mountain/Love of the Mountains
TTITLE1=Barefoot Nelly
TTITLE2=Tennessee Waltz
TTITLE3=Hillendale
TTITLE4=What a Way to Go
TTITLE5=A House of Gold
TTITLE6=One Tear
TTITLE7=Goin' Back to Old Kentucky
TTITLE8=Charmin' Betsy
TTITLE9=Banjo Signal
TTITLE10=Aragon Mill
TTITLE11=Castle on the Cumberland
TTITLE12=I Won't Shed Another Tear for You
TTITLE13=Just Because
TTITLE14=Night Riders Killed Henry Bennett
EXTD=
EXTT0=
EXTT1=
EXTT2=
EXTT3=
EXTT4=
EXTT5=
EXTT6=
EXTT7=
EXTT8=
EXTT9=
EXTT10=
EXTT11=
EXTT12=
EXTT13=
EXTT14=
PLAYORDER=
